<?xml version="1.0" encoding="utf-8"?>
<!-- Generator: Adobe Illustrator 18.1.0, SVG Export Plug-In . SVG Version: 6.00 Build 0)  -->
<!DOCTYPE svg PUBLIC "-//W3C//DTD SVG 1.1//EN" "http://www.w3.org/Graphics/SVG/1.1/DTD/svg11.dtd">
<svg version="1.1" id="Ebene_1" xmlns="http://www.w3.org/2000/svg" xmlns:xlink="http://www.w3.org/1999/xlink" x="0px" y="0px"
	 viewBox="0 0 30 30" enable-background="new 0 0 30 30" xml:space="preserve">
<g>
	<path fill="#FFFFFF" d="M16.8,3.2c6.3,0,9.4,5.1,9.4,11.4s-5.1,11.4-11.4,11.4S3.4,21,3.4,14.7c0-5.8,4.4-10.6,10-11.3"/>
	<g>
		<g>
			<g>
				<g>
					<path fill="#202020" d="M7.1,7.1c0-0.1-0.2-0.2-0.2-0.1l0.2,0.3L7.1,7.1z"/>
					<path fill="#202020" d="M6.3,7.2c0.1,0.2,0.2,0.5,0.5,0.6C6.5,7.5,6.7,7.6,6.4,7.2c0-0.1,0.2,0,0.3,0.1c0-0.1,0.1,0,0-0.2
						C6.5,7,6.4,7.1,6.4,7.3C6.3,7.3,6.3,7.2,6.3,7.2z"/>
					<path fill="#202020" d="M2.9,15.1L2.9,15.1C3,15.1,2.9,15.1,2.9,15.1z"/>
					<path fill="#202020" d="M4.3,20.6C4.3,20.5,4.2,20.5,4.3,20.6C4.2,20.6,4.3,20.6,4.3,20.6z"/>
					<path fill="#202020" d="M4.5,21.6C4.5,21.6,4.5,21.6,4.5,21.6C4.5,21.6,4.5,21.6,4.5,21.6z"/>
					<path fill="#202020" d="M2.9,15.1l-0.1,0.2C2.9,15.3,2.9,15.2,2.9,15.1z"/>
					<path fill="#202020" d="M6.2,8.6c0,0,0-0.1,0-0.1C6.1,8.5,6.1,8.5,6.2,8.6L6.2,8.6z"/>
					<path fill="#202020" d="M2.8,12.6L2.8,12.6c0-0.1-0.1-0.1-0.1-0.1L2.8,12.6z"/>
					<path fill="#202020" d="M3.2,10.7c0,0,0.2,0.1,0.3,0.2c-0.1-0.1-0.1-0.1-0.2-0.2C3.4,10.8,3.3,10.8,3.2,10.7z"/>
					<path fill="#202020" d="M5,8.2L5,8.2C5,8.2,5,8.2,5,8.2z"/>
					<path fill="#202020" d="M2.6,14c0,0-0.1,0-0.1,0C2.5,14,2.6,14,2.6,14z"/>
					<path fill="#202020" d="M18.6,4.8C18.6,4.7,18.6,4.7,18.6,4.8C18.6,4.7,18.6,4.8,18.6,4.8z"/>
					<polygon fill="#202020" points="16.8,3.2 16.8,3.2 16.8,3 					"/>
					<path fill="#202020" d="M5.4,23.3L5.4,23.3C5.3,23.3,5.3,23.3,5.4,23.3z"/>
					<path fill="#202020" d="M21.1,25.5c-0.3-0.1,0.1-0.4-0.3-0.5C20.9,25.1,20.8,25.5,21.1,25.5z"/>
					<path fill="#202020" d="M6.1,8.6C6.1,8.6,6.1,8.6,6.1,8.6C6.1,8.6,6.1,8.6,6.1,8.6z"/>
					<path fill="#202020" d="M20.8,25L20.8,25L20.8,25C20.8,25,20.8,25,20.8,25z"/>
					<path fill="#202020" d="M8.9,25.8c0,0,0-0.1,0-0.1C8.9,25.7,8.9,25.7,8.9,25.8z"/>
					<path fill="#202020" d="M6.5,23.6L6.5,23.6C6.6,23.7,6.5,23.7,6.5,23.6z"/>
					<path fill="#202020" d="M10.5,26.1C10.5,26.1,10.5,26.2,10.5,26.1C10.6,26.1,10.6,26.1,10.5,26.1
						C10.6,26.1,10.5,26.1,10.5,26.1z"/>
					<path fill="#202020" d="M12.1,26.6C12.1,26.5,12.1,26.5,12.1,26.6L12.1,26.6L12.1,26.6z"/>
					<path fill="#202020" d="M22.2,6.5c0-0.1,0.1-0.2,0.1-0.2C22.2,6.4,22,6.3,22.2,6.5z"/>
					<path fill="#202020" d="M6,8.5c0.1,0,0.1,0.1,0.1,0.1C6.1,8.6,6.1,8.5,6,8.5C6.1,8.5,6.1,8.5,6,8.5z"/>
					<path fill="#202020" d="M11.3,24l0.2,0.1C11.5,24.1,11.4,24.1,11.3,24z"/>
					<path fill="#202020" d="M25,15.9L25,15.9C24.9,15.9,24.9,15.9,25,15.9z"/>
					<path fill="#202020" d="M12.2,24.3c0,0.1,0,0.2,0.1,0.2c0,0,0,0,0-0.1L12.2,24.3z"/>
					<path fill="#202020" d="M22.3,6.3L22.3,6.3L22.3,6.3z"/>
					<path fill="#202020" d="M20.8,5.9C21,6,21.1,5.7,21.3,5.5c0.3,0.1-0.1,0.3-0.1,0.5c0.2,0,0.5-0.2,0.6-0.1c0,0.1,0,0.1-0.1,0.1
						c0.3-0.1,0.4,0.3,0.8,0.2c0,0,0,0.1,0,0.1c0.1-0.2,0.2-0.3,0.3-0.4c0.1,0.1,0.3,0,0.2,0.2c0,0-0.1,0-0.2,0.1l0.2,0
						c-0.2,0.3-0.2,0-0.4,0.2c0.2,0,0.6,0,0.6,0.2c-0.2,0.2-0.3-0.2-0.4,0.2c0,0-0.1-0.3-0.1-0.3c-0.3,0.5-0.1-0.1-0.4,0.4
						c0.1,0.3,0.3,0.1,0.4,0.4C22.8,7.1,22.8,7,23,6.9c0.6,0.1-0.5,0.8,0.1,0.8c0.2-0.1,0.6-0.3,0.5,0l-0.4,0.1
						c0.1,0.3,0.6-0.2,0.5,0.3c-0.2,0-0.2-0.1-0.2-0.1c-0.2,0.3,0.3,0,0.3,0.2l-0.3,0.2c0.2,0.2,0.6,0.4,0.8,0.8
						c-0.1,0-0.2,0-0.3,0.1c0.3,0.3,0.3,0.9,0.2,1.4l0.3,0.1c0,0-0.1,0.1-0.2,0.1c-0.1,0.2,0.2,0,0.3,0c0,0.1-0.1,0.2-0.2,0.1
						c0.3,0.2,0.7,0.7,0.5,1.1l-0.1,0c-0.1,0.3,0.6,0.2,0.4,0.5l-0.1,0c-0.1,0.6,0.3,1.1-0.2,1.6c0.4,0.1-0.2,0.5,0.4,0.6
						c-0.3,0.3-0.4,0.2-0.6,0.6c0,0.1,0.4,0.2,0.4,0.3l-0.3,0l0.3,0.2l-0.4,0.1l0.1,0.1c0,0,0.2-0.1,0.2-0.1
						c0.1,0.2-0.3,0.5-0.4,0.4l0.2,0.5c-0.1,0-0.2-0.1-0.2-0.2c0.3,0.3-0.3,0-0.1,0.3c0.1,0,0.2,0.1,0.2,0.1
						c-0.2,0.1-0.3,0.3-0.2,0.5l-0.2-0.1c-0.1,0.3-0.1,0.7-0.3,1.1c0.1-0.1,0.5,0.1,0.5,0.2l-0.3-0.1c0.2,0.1,0.2-0.1,0.3,0.2
						c-0.1,0.1-0.4,0-0.4-0.2l0,0.2c-0.1,0-0.1-0.1-0.2-0.1c0.2,0.1-0.4,0.1-0.2,0.4l-0.1,0c-0.2,0.3-0.1,0.6-0.3,0.8
						c0.2,0.1,0.1,0.2,0.3,0.4c-0.2,0.2-0.5,0.3-0.7,0.5c0,0.2,0.2,0.2,0.2,0.4c-0.2-0.1-0.4,0.1-0.4-0.1c-0.2,0.3-0.2,0.4-0.4,0.8
						c0.1,0,0.2,0,0.2,0.1c0,0.1-0.2,0.1-0.3,0l0,0c0,0.3-0.4,0.4-0.7,0.4c-0.3,0.1-0.6,0.1-0.6,0.4v0l-0.1,0.5
						c-0.2,0.1,0-0.2-0.2-0.3c-0.1,0.6-0.6,0.3-0.7,0.8c-0.6-0.5-0.8,0.5-1.4,0.2l0.1,0.2c0,0.2-0.1-0.1-0.2-0.1
						c0.1,0.1,0.2,0.1,0.1,0.2c-0.7,0.5-1.7,0.3-2.5,0.2c-0.3,0-0.1,1-0.5,0.6l0.1-0.3c-0.3,0.2-0.6,0.2-0.9,0.2
						c-0.3,0-0.6-0.1-0.9,0.1c0-0.1,0.1-0.2,0.1-0.2c-0.1-0.2-0.5,0-0.5,0.1c-0.1,0,0-0.2,0-0.3c-0.1-0.2-0.4,0.3-0.4,0
						c0,0,0-0.1,0.1-0.1c-0.1,0.1-0.4-0.1-0.3,0.2c-0.2-0.2-0.4,0-0.6-0.2c-0.2,0.3-0.3-0.2-0.5,0.2c0.1-0.4-0.3-0.5-0.5-0.3
						c0.1-0.1-0.1-0.2,0.1-0.3c-0.2,0-0.3,0-0.4,0.2c-0.1-0.6-0.7,0.1-0.6-0.6c-0.5,0-1-0.1-1.5-0.2c0.3-0.4,0.4,0.2,0.7-0.2
						c-0.4,0-0.9,0.1-1.1-0.2c0-0.1,0.2-0.1,0.2-0.2c-0.5-0.1-0.6-0.5-1-0.6c0,0,0.1,0,0.1,0c-0.1,0-0.1-0.2-0.2,0l0.1,0
						c-0.1,0.3-0.7,0.2-0.8,0.3c0.5-0.3-0.2-0.4,0.5-0.8c-0.1,0-0.2,0-0.3,0.1c0-0.1,0-0.2,0.2-0.2c-0.3-0.1-0.4,0.1-0.5-0.1
						c0.1-0.1,0.1-0.1,0.2-0.1c-0.2,0-0.5,0.1-0.5-0.1c0.1,0,0.1-0.1,0.1,0c-0.2-0.3-0.8-0.2-0.9-0.6c0.4-0.1,0-0.2,0.4-0.4
						l-0.2-0.1l-0.1,0.2c-0.1-0.2-0.4-0.2-0.4-0.4l0.2,0l-0.2-0.3l0,0.2C5.1,20,5,20.5,4.9,20.2C5,20.2,4.8,20,5,20h0
						c-0.1,0-0.3-0.2-0.3-0.4c0.1-0.1,0.4-0.2,0.4-0.3c-0.3,0-0.3-0.4-0.6-0.4c0.1,0,0.3-0.1,0.3-0.1l-0.3,0c0-0.1,0.1-0.1,0.2-0.2
						c0-0.3-0.4,0.2-0.3-0.1c0,0,0.1,0,0.1,0c0-0.3-0.4-0.5-0.3-0.8c0.3-0.2,0.1,0.2,0.4,0C4.6,17.4,4,17,4.1,16.6l0,0.1
						c-0.5,0,0.2-0.3-0.1-0.5c0,0,0.3,0,0.2,0c0-0.3-0.2-0.5-0.4-0.9l0.1,0c0.1-0.2,0-0.4,0.1-0.6c-0.1-0.1-0.1-0.2-0.3-0.1
						c0.8-0.5-0.4-1.1,0.3-1.5c0,0.1,0.1,0.1,0.1,0.1c0,0,0-0.1,0-0.2c0-0.1,0-0.2,0-0.2c-0.2,0-0.1,0-0.3,0.1
						c-0.1-0.1-0.2-0.2-0.2-0.3c0.1,0.2,0.4,0.1,0.5,0c-0.1,0-0.1,0-0.2,0c0.4-0.1-0.5-0.1-0.1-0.4l0.1,0c0-0.1-0.2-0.3-0.1-0.4
						c0.3,0,0.1,0.1,0.3,0.2c0-0.2-0.4-0.4-0.1-0.5c0.1,0.1,0,0.2,0.1,0.3c0.3-0.1,0.3-0.1,0.4-0.2l0,0l0.2-0.2l-0.1,0
						c-0.6-0.4,0-0.4-0.3-0.9c0.3,0.4,0.2,0.1,0.5,0.3c0.1,0,0.2-0.1,0.3,0c-0.2-0.2,0.3-0.1,0-0.4c0.1,0,0.1-0.1,0.3,0
						c0-0.2-0.2,0-0.3-0.1C4.8,9.9,5.6,9.9,5.4,9.4c0-0.4-0.3-0.6-0.2-1c0.2,0,0.3,0.3,0.3,0.3c0.2-0.1,0.3-0.2,0.3-0.4
						c0.1,0.1,0.1,0.1,0.2,0.1c0.1-0.1-0.2-0.3,0-0.3C6,8.2,6.1,8.3,6.1,8.4c0-0.2,0-0.4,0-0.6C6.3,8,6.3,8.1,6.3,8.2
						c0-0.2,0.1-0.4,0-0.6l-0.1,0c0-0.1,0.2,0.1,0.2,0.2C6.4,8,6.2,7.9,6.1,7.8l0-0.1C5.6,7.4,5.9,8.1,5.7,8.3L5.5,8l0.1,0.4
						c-0.1,0-0.3-0.1-0.3-0.3c-0.3,0,0,0.2-0.2,0.2c0,0-0.1,0-0.1,0l0,0.2C5,8.4,4.8,8.3,4.9,8.3c-0.4,0.1,0,0.6-0.3,0.5l0,0
						C4.5,9.2,4.8,8.9,5,9.3L4.2,9.2l0.3,0.2c0,0-0.1,0.1-0.2,0c0.1,0.2,0.1,0,0.3,0.2C4.2,9.6,4.4,10.1,3.9,10
						c0.2,0.2,0.2-0.1,0.3,0.2c-0.5-0.1,0,0.3-0.3,0.3c-0.2-0.1,0-0.3-0.3-0.2c0.4,0.3-0.2,0.3-0.2,0.5c0.3,0.1,0,0.4,0.1,0.7
						c-0.1-0.1-0.3,0.4-0.5,0.6l-0.1,0c0.3,0.1,0.2,0.4,0.3,0.6c-0.2,0-0.3-0.1-0.4-0.2l0,0.2C2.9,12.7,3,12.7,3,12.8l-0.3-0.1
						c0,0.2,0.3,0.5,0,0.8c0.3,0,0.7-0.2,0.9,0.2c-0.1,0-0.4,0-0.4-0.1c0,0,0.1,0.1,0,0.2l-0.2-0.1c-0.1,0.1,0.2,0.1,0.2,0.2
						c-0.2,0-0.1,0.1-0.3,0c0,0,0.1-0.1,0-0.1c0,0.1-0.2,0.3-0.3,0.3c0.1,0,0.3,0,0.3,0.1c0,0.2-0.2,0.1-0.3,0.2
						c0.1,0.1,0,0.2,0.3,0.2c0,0.1-0.1,0.1-0.2,0.1c0.1,0.1,0.1,0.6,0.4,0.4l0,0l0,0l0,0l0,0c0.3,0.4-0.1,0.8,0.1,1.2l-0.1,0
						c0.1,0.2,0.1,0.5,0.4,0.6c0,0.1-0.1,0.2-0.3,0.2c0.1,0.2,0.2,0.2,0.1,0.4C3,17.4,3.1,17.6,3,17.4c0,0.2-0.2,0.3,0.2,0.5
						c-0.3,0-0.3,0.3-0.2,0.4L3.2,18c0.1,0.1,0.1,0.2,0.1,0.3l-0.3,0C2.7,19,3.9,19,3.4,19.6c0.3,0,0-0.3,0.3-0.3
						c0,0.2-0.3,0.6-0.3,0.7c0,0.4,0.6,0,0.6,0.4c0.1-0.1,0.3-0.3,0.6-0.1c0.1,0.2-0.3,0.5-0.4,0.4c0,0,0-0.1,0-0.1
						c-0.1,0-0.2-0.1-0.2,0l0.1,0C4,20.7,4.2,21,4,21c0.2,0.1,0.2,0,0.2-0.2c0,0.3,0.2,0.4,0.3,0.7c0-0.1,0.1-0.2,0.1-0.2
						c0.1,0.4,0.3,0,0.5,0.2c0,0.2-0.4,0.2-0.1,0.4c0,0.2-0.2,0.2-0.3,0.2C5,22.3,4.9,22.7,5,22.9l-0.2-0.1c0.1,0,0.1,0.1,0.2,0.1
						l0.1-0.2c0,0.1,0.1,0.1,0,0.2c0.2,0,0.3-0.3,0.5-0.3c0,0.2,0.3,0.2,0.1,0.4c-0.2-0.3-0.2,0.2-0.4,0.1c0.1,0,0.1,0.1,0.1,0.2
						c0,0-0.1,0-0.1,0c0,0.5,0.4-0.1,0.6,0.1c-0.2,0.1-0.2,0.3-0.1,0.3c-0.1-0.1,0.2-0.3,0.3-0.3c0.1,0.3,0.3,0.1,0.3,0.2l-0.1-0.1
						c0.2-0.1,0.2,0,0.4,0.1c-0.1,0.1-0.2,0-0.2,0.1c0.3-0.1,0.1,0.5,0.4,0.5c0,0.2-0.2,0.3-0.2,0.4c0.4,0,0.1,0.4,0.4,0.4
						c0.1-0.2,0-0.2,0.3-0.3l-0.5-0.1l0.4-0.1c-0.1-0.1-0.3-0.1-0.4-0.1c0.2-0.1,0.2,0,0.3-0.2C7.5,24.4,8,24.1,8,24.4l-0.3,0.5
						c0.1,0.4,0.7,0.1,1,0.4l-0.1-0.2c0.2-0.2,0.2,0.1,0.4,0.1c-0.1,0.2-0.1,0.3-0.1,0.4c0.1-0.1,0.3,0.2,0.5-0.2l0.1,0.3
						c0.3,0.2,0.6-0.3,0.9-0.1c-0.2,0.2-0.1,0.3-0.4,0.4c0.1,0,0.2,0.1,0.2,0c0,0.1,0.4-0.1,0.4,0.1c0.1-0.1,0.2-0.3,0.3-0.2
						c0,0,0,0.1,0,0.1c0-0.1,0.2-0.1,0.2-0.3c0.1,0.7,0.9,0.2,1.1,0.8c0.2,0,0.6,0,0.8,0c0,0.1,0,0.1-0.1,0.1
						c0.3,0.2,0.3-0.5,0.6-0.3c0.1,0.3-0.2,0.1-0.1,0.3c0,0.7,0.4,0,0.6,0.4l-0.1,0c0.2,0.2,0.5-0.2,0.7-0.2c0,0,0,0.1,0,0.1
						c0.2-0.3,0.6-0.5,0.8-0.6c-0.1,0.3-0.1,0.1-0.1,0.4c0.1,0-0.1-0.4,0.2-0.5c0.1,0.1,0.3,0.2,0.3,0.5l-0.3,0c0.1,0.3,0.4,0,0.4,0
						V27c0-0.1,0.3-0.5,0.7-0.5l0-0.1c0.1-0.4,0.2,0.2,0.4-0.1l0.1,0.4c0.1-0.1,0.4-0.5,0.6-0.6c-0.1,0.3-0.3,0.5-0.5,0.8
						c0.1,0,0.5-0.1,0.5-0.4c0,0.1-0.1,0.2-0.2,0.1c0.1-0.3,0.3-0.5,0.5-0.6c0.2,0.8,0.7-0.1,1.1,0.4c0.4-0.4,1-0.3,1.5-0.6
						c-0.5-0.4,0.1-0.1-0.2-0.6c0.1-0.1,0.1-0.1,0.2-0.1l0.5,0.1c0.2,0.1,0,0.2,0,0.3c0.3-0.1,0.2,0.2,0.5,0.2
						c-0.2-0.2-0.1-0.3,0.1-0.3l-0.4-0.1c0.2-0.5,0.6,0.2,0.8-0.3l0,0.2c0.1-0.2,0.7-0.5,0.5-1c0.1,0,0.2,0.1,0.2,0.2
						c0.5-0.3,0.5-1.2,1-1.3l0.1,0.1c0-0.1-0.1-0.3,0.1-0.3c0,0,0.1,0.1,0.1,0.1c0-0.1,0-0.4,0.1-0.4l0.1,0.2
						c0.5-0.3,0.1-0.9,0.3-1.3c0.4,0.3,0.7,0,0.9-0.2l0,0c0.4-0.5,0.2-1.1,0.3-1.6c0.6-0.1,0.6-1,1-1.4c-0.1,0.1-0.3-0.1-0.3-0.2
						c0.1-0.1-0.2-0.4,0.2-0.3l0,0c0.4,0,0.4-0.3,0.4-0.5l-0.5-0.1c0.8-0.4,0-1.4,0.6-1.6c-0.1-0.1-0.1-0.3-0.2-0.4l0.3,0
						c0.1-0.4,0.1-0.5,0-1l0.2,0.1c0-0.3-0.8-0.3-0.8-0.5l0.4-0.1c0-0.4,0.3-0.9-0.1-1.3c0.1,0,0.2,0,0.2,0.1c0-0.2,0.2-0.8-0.4-0.7
						c0.4-0.1,0-0.4-0.2-0.6l0.3,0c-0.4-0.1-0.5-0.1-0.6-0.3c0-0.1,0.2-0.1,0.2,0c0.1-0.2-0.3-0.1-0.2-0.4l0.2,0
						c0-0.2-0.1-0.2-0.3-0.2c-0.1-0.1-0.1-0.4,0.2-0.5c-0.2,0-0.4,0-0.4-0.2c0.1,0,0.2,0,0.2,0c0.1-0.4-0.5-0.4-0.3-0.7
						c0.1,0,0.1-0.1,0.1-0.1c0.1,0.3,0.2,0.5,0.1,0.5c0.2-0.1,0.2-0.3,0.6-0.3C26.5,8.8,26,8.6,26,8.4c0,0,0,0,0.1-0.1l0,0
						c0-0.1,0-0.1-0.1-0.1c0-0.1,0-0.1,0-0.2c0.2-0.1,0-0.3-0.1-0.4c-0.2,0.1-0.3,0-0.4,0.2c0,0,0,0,0.1,0.1c0,0,0,0,0.1,0l0,0
						c0,0.1,0.1,0.2,0.1,0.3c-0.2,0-0.3-0.1-0.2-0.2c-0.2,0-0.4,0-0.5,0.1c0.3-0.3,0.3-0.7,0.5-0.9c-0.3-0.3-0.6-0.7-1.1-0.6
						c-0.1,0,0.1-0.2,0.1-0.3c0.1,0,0.1,0.1,0.2,0.1c-0.2-0.1-0.4-0.5-0.7-0.3c0-0.3,0.4-0.1,0.1-0.3l0.1,0c0-0.5-0.4-0.5-0.8-0.6
						c-0.4,0-0.7-0.1-0.8-0.6c0,0.1,0,0.1,0,0.2C22.4,4.2,22,4,21.5,3.9c-0.4-0.2-0.8-0.3-1.1-0.7c-0.2-0.2-0.3,0-0.5,0.2l0-0.3
						l-0.3,0.3c-0.4,0.1-0.4-0.9-1-0.5l0,0.2c-0.2-0.1-0.5,0-0.5-0.2c0,0-0.1,0.2-0.1,0.1l0-0.2L17.6,3c-0.3-0.1,0.1-0.6-0.4-0.7
						c-0.2,0.1-0.5,0.4-0.4,0.5c0.1,0,0.2,0.1,0.2,0.3l-0.1,0.1c0,0.5-0.1,0.9,0.2,1.3l0.2-0.3l0.1,0.2l-0.2,0
						c0.1,0.2,0.2,0,0.3-0.1c0,0.1,0,0.2,0.1,0.3l0.3-0.4c0,0.2-0.1,0.4,0,0.5c0.1-0.2-0.1-0.4,0.1-0.5c0.1,0.2,0,0.4,0.2,0.2
						c0,0.1,0,0.2-0.1,0.2c0.1-0.1,0.3,0,0.4-0.2c0.1,0.3,0.4,0,0.3,0.4c0.1-0.1,0.3-0.3,0.4-0.3c-0.3,0.5,0.4,0.1,0.2,0.7
						C19.4,4.7,19.7,5,20,4.9c0,0-0.1,0.1-0.1,0.1C20,5,20,5.2,20,5.3c0.2-0.4,0.4-0.4,0.6-0.5c0,0.4-0.3,0.4-0.4,0.7
						c0.1-0.3,0.4-0.1,0.5-0.4c0,0.3,0,0.2-0.1,0.5c0.3-0.4,0.1,0,0.4-0.2c0,0.3-0.2,0.4,0,0.4C21.1,5.9,20.8,5.9,20.8,5.9z
						 M24.4,9.1L24.4,9.1C24.4,9.1,24.4,9,24.4,9.1C24.4,9,24.4,9.1,24.4,9.1z M24.6,9.5c0-0.1,0-0.1-0.1-0.2c0.1,0,0.2-0.1,0.2,0
						C24.6,9.3,24.6,9.4,24.6,9.5z M26,7.8c0.1,0.1,0,0.1,0,0.1c0,0,0-0.1-0.1-0.1l0,0C25.9,7.8,25.9,7.8,26,7.8z"/>
					<path fill="#202020" d="M25.6,7.9C25.6,7.8,25.6,7.8,25.6,7.9C25.5,7.9,25.5,7.9,25.6,7.9L25.6,7.9L25.6,7.9z"/>
					<path fill="#202020" d="M3,15.1L3,15.1C3,15.1,3,15.1,3,15.1C3,15.1,3,15.1,3,15.1z"/>
					<polygon fill="#202020" points="24.9,15.4 24.9,15.4 24.9,15.4 					"/>
					<path fill="#202020" d="M4.1,12.6C4.1,12.6,4.2,12.6,4.1,12.6C4.2,12.6,4.1,12.6,4.1,12.6z"/>
					<path fill="#202020" d="M4.4,11.6l0.1-0.1C4.5,11.5,4.4,11.6,4.4,11.6z"/>
					<path fill="#202020" d="M4.8,10.9c0,0-0.1,0-0.1-0.1l0,0L4.8,10.9z"/>
					<path fill="#202020" d="M7.8,22.2C7.8,22.2,7.8,22.2,7.8,22.2C7.9,22.2,7.8,22.2,7.8,22.2z"/>
					<path fill="#202020" d="M5,19.6c0.1,0,0.1,0,0.2,0.1C5.2,19.6,5.1,19.6,5,19.6z"/>
					<polygon fill="#202020" points="11.3,24 11.3,24 11.3,24 					"/>
					<path fill="#202020" d="M5.2,19.8c0-0.1,0-0.1-0.1-0.2C5.2,19.7,5.2,19.8,5.2,19.8z"/>
					<path fill="#202020" d="M6.6,8L6.6,8C6.6,8,6.6,8,6.6,8L6.6,8z"/>
					<path fill="#202020" d="M6.6,8L6.6,8C6.6,7.9,6.6,7.9,6.6,8z"/>
					<path fill="#202020" d="M6.6,7.8l0,0.1C6.6,7.9,6.7,7.9,6.6,7.8z"/>
					<path fill="#202020" d="M5.9,8.8L5.9,8.8C6,8.8,5.9,8.8,5.9,8.8z"/>
					<path fill="#202020" d="M5.7,9.1C5.8,9,6,9,6,8.9L6,8.8C6.1,9,5.6,8.9,5.7,9.1z"/>
					<path fill="#202020" d="M4,9.7l0.2-0.2c-0.1,0-0.3,0-0.2-0.1C3.5,9.5,4.2,9.4,4,9.7z"/>
					<path fill="#202020" d="M3.5,10.5c0-0.2-0.1-0.1-0.2-0.1C3.3,10.6,3.3,10.6,3.5,10.5z"/>
					<path fill="#202020" d="M3,17.2l-0.3,0C2.8,17.3,2.8,17.2,3,17.2z"/>
					<polygon fill="#202020" points="4.6,18 4.7,17.9 4.5,17.9 					"/>
					<polygon fill="#202020" points="3.1,19.3 3.1,19.3 3.2,19.5 					"/>
					<path fill="#202020" d="M11.8,26.7l0-0.3C11.7,26.4,11.6,26.8,11.8,26.7z"/>
					<path fill="#202020" d="M16.7,26.6c0.1,0.1,0.2,0.2,0.3,0.1C16.9,26.7,16.8,26.6,16.7,26.6z"/>
					<polygon fill="#202020" points="27.2,17 27.3,17.1 27.2,16.9 					"/>
				</g>
			</g>
		</g>
		<g>
			<polygon points="6.5,9.9 13.4,3.3 4.1,5.6 			"/>
		</g>
	</g>
</g>
</svg>
